<svg width="492" height="405" viewBox="0 0 492 405" fill="none" xmlns="http://www.w3.org/2000/svg">
<path d="M352.37 0H137.379C132.916 0 129.297 3.77367 129.297 8.42872V345.999C129.297 350.654 132.916 354.428 137.379 354.428H352.37C356.834 354.428 360.452 350.654 360.452 345.999V8.42872C360.452 3.77367 356.834 0 352.37 0Z" fill="#F2F6FB"/>
<path d="M143.643 16.8685C145.764 16.8685 147.482 15.2647 147.482 13.2863C147.482 11.3079 145.764 9.7041 143.643 9.7041C141.523 9.7041 139.804 11.3079 139.804 13.2863C139.804 15.2647 141.523 16.8685 143.643 16.8685Z" fill="#FF5645"/>
<path d="M156.373 16.8685C158.382 16.8685 160.01 15.2647 160.01 13.2863C160.01 11.3079 158.382 9.7041 156.373 9.7041C154.364 9.7041 152.736 11.3079 152.736 13.2863C152.736 15.2647 154.364 16.8685 156.373 16.8685Z" fill="#FFCB3D"/>
<path d="M168.699 16.8685C170.596 16.8685 172.134 15.2647 172.134 13.2863C172.134 11.3079 170.596 9.7041 168.699 9.7041C166.802 9.7041 165.264 11.3079 165.264 13.2863C165.264 15.2647 166.802 16.8685 168.699 16.8685Z" fill="#3ABF7C"/>
<path d="M227.094 9.7041H263.06C263.73 9.7041 264.272 10.2702 264.272 10.9684V15.6042C264.272 16.3025 263.73 16.8685 263.06 16.8685H227.094C226.424 16.8685 225.881 16.3025 225.881 15.6042V10.9684C225.881 10.2702 226.424 9.7041 227.094 9.7041ZM329.74 9.7041H349.137C349.807 9.7041 350.349 10.2702 350.349 10.9684V15.6042C350.349 16.3025 349.807 16.8685 349.137 16.8685H329.74C329.07 16.8685 328.527 16.3025 328.527 15.6042V10.9684C328.527 10.2702 329.07 9.7041 329.74 9.7041ZM303.068 9.7041H322.061C322.731 9.7041 323.274 10.2702 323.274 10.9684V15.6042C323.274 16.3025 322.731 16.8685 322.061 16.8685H303.068C302.398 16.8685 301.855 16.3025 301.855 15.6042V10.9684C301.855 10.2702 302.398 9.7041 303.068 9.7041ZM200.826 121.933H289.732C290.178 121.933 290.54 122.311 290.54 122.776V129.951C290.54 130.416 290.178 130.794 289.732 130.794H200.826C200.38 130.794 200.018 130.416 200.018 129.951V122.776C200.018 122.311 200.38 121.933 200.826 121.933ZM184.661 107.588H305.088C305.535 107.588 305.897 107.966 305.897 108.431V115.606C305.897 116.071 305.535 116.448 305.088 116.448H184.661C184.215 116.448 183.853 116.071 183.853 115.606V108.431C183.853 107.966 184.215 107.588 184.661 107.588ZM143.441 154.243C143.441 153.313 144.169 152.56 145.058 152.56H345.499C346.393 152.56 347.117 153.314 347.117 154.243V290.952C347.117 291.882 346.389 292.635 345.499 292.635H145.058C144.165 292.635 143.441 291.882 143.441 290.952V154.243ZM144.705 303.434H237.145C237.865 303.434 238.127 303.512 238.39 303.659C238.654 303.806 238.86 304.022 239.001 304.296C239.142 304.571 239.217 304.844 239.217 305.595V334.182C239.217 334.934 239.142 335.206 239.001 335.481C238.86 335.756 238.654 335.971 238.39 336.118C238.127 336.265 237.865 336.343 237.145 336.343H144.705C143.985 336.343 143.723 336.265 143.46 336.118C143.197 335.971 142.99 335.756 142.849 335.481C142.708 335.206 142.633 334.934 142.633 334.182V305.595C142.633 304.844 142.708 304.571 142.849 304.296C142.99 304.022 143.197 303.806 143.46 303.659C143.723 303.512 143.985 303.434 144.705 303.434ZM252.605 303.434H345.044C345.765 303.434 346.026 303.512 346.29 303.659C346.553 303.806 346.76 304.022 346.901 304.296C347.042 304.571 347.117 304.844 347.117 305.595V334.182C347.117 334.934 347.042 335.206 346.901 335.481C346.76 335.756 346.553 335.971 346.29 336.118C346.026 336.265 345.765 336.343 345.044 336.343H252.605C251.884 336.343 251.623 336.265 251.359 336.118C251.096 335.971 250.889 335.756 250.748 335.481C250.607 335.206 250.532 334.934 250.532 334.182V305.595C250.532 304.844 250.607 304.571 250.748 304.296C250.889 304.022 251.096 303.806 251.359 303.659C251.623 303.512 251.884 303.434 252.605 303.434Z" fill="#E1E5F0"/>
<path d="M279.205 199.799C285.106 199.799 289.889 194.79 289.889 188.611C289.889 182.433 285.106 177.424 279.205 177.424C273.305 177.424 268.521 182.433 268.521 188.611C268.521 194.79 273.305 199.799 279.205 199.799Z" fill="#F2F6FB"/>
<path d="M245.077 96.9979V95.3122C247.325 95.3122 249.533 95.0061 251.662 94.4082L252.082 96.0359C249.817 96.6723 247.467 96.9979 245.077 96.9979ZM258.604 93.1936L257.79 91.7377C259.71 90.569 261.475 89.1396 263.039 87.4904L264.188 88.6756C262.525 90.4298 260.647 91.9502 258.604 93.1936ZM268.457 82.8001L267.052 81.9672C268.148 79.9546 268.987 77.7979 269.541 75.5463L271.107 75.9657C270.517 78.3625 269.624 80.6582 268.457 82.8001ZM271.949 68.6118L270.332 68.6331C270.304 66.2905 269.982 63.9916 269.381 61.7783L270.936 61.3189C271.576 63.6744 271.918 66.1206 271.949 68.6118ZM268.124 54.5515L266.739 55.4201C265.594 53.4332 264.2 51.6106 262.599 50.0015L263.72 48.7875C265.424 50.4991 266.906 52.4376 268.124 54.5515ZM258.033 44.4132L257.253 45.8895C255.309 44.7722 253.231 43.9261 251.064 43.377L251.446 41.7389C253.752 42.3235 255.965 43.2241 258.033 44.4132ZM244.385 40.9561L244.426 42.6413C242.181 42.7005 239.98 43.0658 237.864 43.722L237.404 42.1062C239.655 41.4078 241.997 41.019 244.385 40.9561ZM230.952 45.1256L231.803 46.559C229.913 47.7792 228.183 49.2556 226.661 50.9464L225.482 49.7925C227.101 47.9941 228.941 46.4237 230.952 45.1256ZM221.361 55.78L222.786 56.5746C221.741 58.6152 220.957 60.7934 220.458 63.0605L218.882 62.6838C219.413 60.2704 220.248 57.9518 221.361 55.78ZM218.223 70.0566L219.838 69.9925C219.923 72.3316 220.302 74.6219 220.959 76.8205L219.416 77.3222C218.717 74.9821 218.314 72.5447 218.223 70.0566ZM222.394 84.0085L223.758 83.1029C224.952 85.0583 226.39 86.8431 228.03 88.4087L226.939 89.6523C225.194 87.987 223.665 86.0887 222.394 84.0085ZM232.732 93.8726L233.476 92.3758C235.445 93.4398 237.544 94.2292 239.725 94.7199L239.384 96.3677C237.062 95.8454 234.829 95.005 232.732 93.8726ZM261.995 267.546L247.973 267.613L248.013 267.546H186.771C182.977 267.546 181.533 264.827 183.545 261.473L225.396 191.707C227.408 188.353 230.739 188.305 232.837 191.607L263.935 240.95L274.937 222.573C276.711 219.61 279.653 219.564 281.51 222.472L306.98 262.349C308.837 265.256 307.645 267.359 304.292 267.25L285.666 267.435L279.785 267.463L279.834 267.546C279.834 267.546 276.761 267.546 272.965 267.546H261.995Z" fill="#E20000"/>
<path opacity="0.176986" d="M279.667 267.641C279.667 267.641 276.595 267.641 272.799 267.641H186.604C182.811 267.641 181.367 264.921 183.379 261.567L225.23 191.801C227.242 188.447 230.572 188.399 232.671 191.701L268.861 249.124" fill="#444444"/>
<path d="M489.77 405.002H448.348C447.378 405.002 446.529 404.272 446.529 403.397V402.814C446.529 401.938 447.338 401.209 448.348 401.209H489.77C490.74 401.209 491.588 401.938 491.588 402.814V403.397C491.588 404.272 490.78 405.002 489.77 405.002ZM394.6 401.209C395.605 401.209 396.419 402.058 396.419 403.105C396.419 404.153 395.605 405.002 394.6 405.002H328.729C327.725 405.002 326.911 404.153 326.911 403.105C326.911 402.058 327.725 401.209 328.729 401.209H394.6Z" fill="#FADEDE"/>
<path d="M489.991 401.22C489.918 401.211 489.844 401.207 489.77 401.207H448.487L451.753 379.708L480.688 375.62L489.991 401.22ZM394.841 401.224C394.762 401.213 394.682 401.207 394.6 401.207H329.015C328.972 400.976 328.95 400.685 328.956 400.309C329.001 400.015 329.007 399.678 329.094 399.342C329.612 397.328 330.241 395.991 332.08 394.802C333.918 393.613 335.795 392.551 337.751 391.618C344.964 388.082 347.429 388.127 352.172 384.883C354.134 383.528 355.939 381.959 357.625 380.262C358.748 379.13 361.043 377.291 364.507 374.746L395.663 375.474L394.841 401.224Z" fill="#474961"/>
<path d="M438.693 142.96C441.768 149.204 450.093 168.582 457.525 208.026C458.137 211.299 458.725 214.485 459.289 217.578L459.345 217.507C469.53 257.529 476.6 285.547 480.555 301.561C484.616 318.008 478.984 317.752 482.064 331.589C483.84 339.567 489.789 345.982 489.738 354.289C489.73 355.601 489.76 358.225 489.829 362.16C489.952 369.189 485.026 375.208 478.351 376.186L451.389 380.138C444.096 381.207 437.352 375.907 436.327 368.301C436.318 368.231 436.309 368.161 436.3 368.091C435.573 362.024 435.205 358.417 435.195 357.27C435.176 354.894 435.147 352.731 435.103 350.76C433.55 344.13 431.931 337.23 430.629 331.668C428.871 328.836 426.803 324.922 425.173 318.588C424.101 314.422 421.663 298.204 417.861 269.936C417.788 269.556 417.649 268.388 417.444 266.429L412.121 245.998C411.899 248.385 411.673 250.799 411.443 253.234C411.913 287.094 411.901 306.115 411.407 310.298C409.851 323.463 405.2 327.088 405.064 331.224C404.931 335.277 405.521 341.182 406.644 350.058C406.788 351.195 406.904 354.82 406.994 360.934C406.995 361.005 406.995 361.076 406.995 361.147C406.995 367.302 403.16 372.524 397.846 374.355C394.502 377.529 389.119 375.114 374.983 375.214C374.983 375.214 372.808 375.234 369.936 375.054L366.432 375.054C364.358 375.054 362.385 374.557 360.622 373.666C358.951 373.178 357.569 372.536 356.799 371.693C356.155 370.968 355.75 370.146 355.75 370.146C355.558 369.698 355.42 369.257 355.321 368.84C354.203 367.086 353.454 365.046 353.195 362.83C352.738 358.923 352.418 356.321 352.234 355.022C351.075 346.804 356.11 339.587 356.804 331.429C358.008 317.28 352.464 318.352 354.291 301.475C356.054 285.195 359.388 266.403 364.295 245.1C367.134 211.547 370.869 173.847 374.983 161.179C375.052 160.952 377.619 151.973 381.329 145.634C381.443 145.761 381.56 145.883 381.682 146C382.147 146.455 382.609 146.784 383.07 147.029C383.993 147.602 384.758 147.799 384.758 147.799C384.758 147.799 384.796 147.798 384.834 147.84C384.834 147.84 409.611 154.301 434.193 146.941L434.269 146.898C434.269 146.898 435.026 146.673 435.93 146.067C436.344 145.806 436.833 145.418 437.282 144.988C437.846 144.414 438.31 143.722 438.693 142.96Z" fill="#E20000"/>
<path opacity="0.176986" d="M386.63 148.252L399.566 197.993L412.108 246.132C411.89 248.475 411.668 250.844 411.443 253.234C411.913 287.094 411.901 306.115 411.406 310.298C409.851 323.463 405.2 327.088 405.064 331.224C404.931 335.277 405.521 341.182 406.644 350.058C406.788 351.195 406.904 354.82 406.994 360.934C406.995 361.005 406.995 361.076 406.995 361.146C406.995 367.302 403.16 372.524 397.846 374.355C394.502 377.529 389.119 375.114 374.983 375.214C374.983 375.214 372.808 375.234 369.936 375.054L366.432 375.054C364.358 375.054 362.385 374.557 360.622 373.666C358.951 373.178 357.569 372.536 356.799 371.693C356.155 370.968 355.75 370.146 355.75 370.146C355.558 369.698 355.42 369.257 355.321 368.84C354.203 367.086 353.454 365.046 353.195 362.83C352.738 358.923 352.418 356.321 352.234 355.022C351.075 346.804 356.11 339.587 356.804 331.429C358.008 317.28 352.464 318.352 354.291 301.474C356.054 285.195 359.388 266.403 364.295 245.1C367.134 211.547 370.869 173.847 374.983 161.179C375.052 160.952 377.619 151.973 381.329 145.634C381.443 145.761 381.56 145.883 381.682 146C382.146 146.455 382.609 146.784 383.07 147.029C383.993 147.602 384.758 147.799 384.758 147.799C384.758 147.799 384.796 147.798 384.834 147.84C384.834 147.84 385.467 148.005 386.63 148.252Z" fill="#444444"/>
<path d="M439.122 90.0538C439.169 90.5383 439.214 91.0387 439.259 91.5548L439.261 91.6812L439.371 93.7446C440.022 116.704 440.347 127.025 440.529 131.068C440.529 131.068 440.498 131.49 440.547 132.122C440.654 133.974 440.82 141.601 437.451 145.034C437.001 145.464 436.513 145.852 436.099 146.112C435.195 146.719 434.438 146.943 434.438 146.943L434.362 146.987C409.779 154.347 385.003 147.885 385.003 147.885C384.584 147.77 384.18 147.652 383.411 147.252C382.657 146.86 381.938 146.281 381.708 146.056C378.265 142.746 378.318 135.109 378.363 133.254C378.353 132.664 378.345 132.2 378.345 132.2C378.388 128.344 378.373 118.978 378.272 98.6597C368.62 97.726 364.713 94.8227 366.55 89.9497C370.723 78.8805 373.486 68.2592 390.029 67.032C394.088 64.9215 398.52 64.2149 401.605 63.9997C403.392 63.8829 404.725 63.9008 405.259 63.9332C405.487 63.929 405.792 63.9656 406.364 63.9974C406.935 64.0291 407.583 64.0595 408.307 64.0885C409.029 64.0332 409.675 63.9793 410.245 63.9267C410.815 63.8742 411.081 63.8272 411.348 63.8224C411.918 63.7698 413.211 63.7041 415.001 63.7559C415.428 63.7701 415.881 63.7924 416.355 63.8255C416.594 63.7682 416.837 63.7118 417.083 63.6563C434.086 59.8296 439.462 69.518 446.365 79.2607C449.128 83.1603 446.714 86.7581 439.122 90.0538Z" fill="#FADEDE"/>
<path opacity="0.176986" d="M389.773 67.0303C387.41 68.272 385.179 69.9927 383.419 72.3729C382.638 73.4409 381.637 75.0608 380.876 77.3929C380.768 77.7321 380.659 78.0291 380.55 78.3683C380.296 79.0895 379.75 80.6168 379.283 82.2692C378.781 84.1329 378.384 87.6807 378.124 92.617L378.126 92.7434L378.084 94.8095C378.091 96.1109 378.097 97.3715 378.104 98.5926C368.69 97.6254 364.891 94.7329 366.707 89.9151C370.845 78.9389 373.597 68.403 389.773 67.0303Z" fill="#444444"/>
<path d="M436.331 193.15C435.994 193.423 435.795 193.544 435.795 193.544C430.49 192.616 438.075 172.125 440.336 166.326L421.294 95.2897C433.115 92.6834 440.912 89.8425 444.687 86.7669C454.953 129.846 460.5 157.476 461.329 169.657C461.392 170.043 461.431 170.457 461.444 170.899C461.666 177.987 459.407 188.836 454.669 203.444C454.631 203.53 442.307 209.84 433.637 204.505L436.331 193.15ZM384.475 26.8457C384.492 26.8222 384.509 26.7983 384.526 26.7742C388.072 22.6287 394.602 22.7512 397.542 23.4125C397.9 23.494 399.169 23.8026 401.005 24.131C402.001 24.325 402.805 24.4131 403.283 24.5079C409.246 25.4157 411.694 24.9212 414.539 26.9281C415.072 27.2831 416.282 28.1785 417.26 29.7688C420.016 34.2662 418.712 39.5473 418.351 41.118C417.146 45.8168 414.197 48.4599 413.271 49.5873C412.582 50.4397 411.625 51.3913 410.694 52.251L411.595 65.8528C411.605 66.1476 411.494 66.4468 411.256 66.582C410.228 67.2941 408.759 68.1067 406.916 68.5955C403.59 69.5178 400.703 69.0326 399.071 68.586C398.745 68.5136 398.491 68.1854 398.48 67.8485L397.992 58.9289C397.638 59.0253 397.26 59.1253 396.858 59.2297C393.307 60.1965 393.52 60.0928 393.271 60.1502C390.671 60.5433 388.509 60.2215 388.116 60.0937C386.682 59.8093 385.281 58.3846 384.13 56.0972C382.569 53.0445 381.369 48.4212 381.021 43.0013C380.936 42.2293 380.972 41.4704 381.008 40.7116L381.603 33.1916C381.732 31.5107 382.263 29.8738 383.219 28.4531C383.608 27.8177 383.984 27.3081 384.433 26.8911C384.447 26.8759 384.461 26.8608 384.475 26.8457ZM366.584 94.0788C367.87 96.4988 371.766 98.0235 378.273 98.653C378.344 112.868 378.372 121.722 378.368 127.079C368.664 139.544 362.17 137.599 362.17 137.599C357.648 137.803 354.189 135.658 352.884 134.835C341.499 127.675 319.887 87.826 316.16 80.8455C311.239 80.1426 306.645 78.7942 302.378 76.8004C295.573 73.6206 292.831 70.6037 294.152 67.7497L329.026 70.0979L329.122 70.0288L359.367 103.224C362.537 99.7123 364.69 96.844 366.584 94.0788Z" fill="#F2A98A"/>
<path opacity="0.2" d="M366.715 94.0783C368 96.4984 371.896 98.0231 378.404 98.6526C378.474 112.867 378.503 121.722 378.499 127.079C368.794 139.543 362.301 137.599 362.301 137.599C357.778 137.803 354.32 135.658 353.015 134.834C341.63 127.674 320.018 87.8255 316.29 80.845C311.37 80.1421 306.776 78.7938 302.509 76.8C295.704 73.6201 292.962 70.6033 294.282 67.7493L329.157 70.0975L329.253 70.0284L359.498 103.224C362.668 99.7118 364.821 96.8435 366.715 94.0783Z" fill="#8C2A00"/>
<path d="M397.337 59.0767L403.29 57.0955L398.42 64.8566L397.337 59.0767Z" fill="#482D1F"/>
<path d="M411.852 42.0511C411.895 41.0299 411.694 39.9817 411.167 39.0171C410.071 36.99 407.765 35.6779 405.768 36.137C404.645 36.3953 403.833 37.1962 403.744 37.2712C402.516 38.5773 402.122 40.0597 402.122 40.0597L401.925 41.0437C387.441 35.2817 384.633 28.0095 383.879 27.5509C384.109 27.2795 384.335 27.05 384.477 26.8537C388.064 22.7126 394.714 22.8483 397.695 23.514C398.092 23.6 399.362 23.9086 401.238 24.2414C402.274 24.4397 403.078 24.5278 403.556 24.6226C409.64 25.5437 412.127 25.0536 415.013 27.0649C415.546 27.4199 416.796 28.3197 417.774 29.91C420.822 34.736 419.434 40.0503 418.905 41.2636C418.535 42.1129 417.953 42.6424 417.953 42.6424C415.813 42.3078 413.817 42.1596 411.852 42.0511ZM379.981 38.614C379.581 38.5078 379.488 37.954 379.785 37.6749C380.165 37.358 380.828 37.0566 381.635 37.1007C383.29 37.1912 385.008 38.4245 383.126 38.8281C382.022 39.0632 380.739 38.8242 379.981 38.614ZM388.279 39.3629C387.88 39.2567 387.786 38.703 388.124 38.426C388.504 38.1092 389.167 37.8078 390.014 37.8541C391.669 37.9445 393.385 39.22 391.506 39.5815C390.318 39.8542 389.038 39.5732 388.279 39.3629Z" fill="#482D1F"/>
<path d="M382.98 41.7326C382.904 42.4458 382.724 43.6176 382.299 44.0164C381.581 44.6102 380.799 42.4574 381.389 41.1814C381.619 40.6453 381.905 40.5766 382.226 40.6363C382.706 40.747 383.006 41.2276 382.98 41.7326ZM390.208 42.0432C390.213 42.7609 390.154 43.9393 389.725 44.4223C389.083 45.1046 388.055 43.0228 388.526 41.6981C388.715 41.1598 389.004 41.049 389.327 41.0666C389.811 41.0931 390.193 41.536 390.208 42.0432Z" fill="#482D1F"/>
<path d="M386.466 50.4888C386.752 50.42 387.449 50.2471 387.593 49.7908C387.597 49.7066 387.644 49.5825 387.608 49.4962C387.461 49.1927 386.969 49.3346 386.24 49.337C384.945 49.3506 383.902 49.167 383.902 49.167C383.902 49.167 384.142 50.0241 384.331 50.2877C384.703 50.941 386.015 50.5908 386.466 50.4888Z" fill="#482D1F"/>
<path d="M384.147 41.8797L384.153 41.8215L384.148 41.8504L384.147 41.8797ZM383.322 46.2916C383.222 46.7621 383.551 47.2475 384.007 47.3526C384.107 47.3678 384.107 47.3678 384.173 47.3766C384.851 47.4684 385.275 47.512 386.006 47.552C386.229 47.5641 386.419 47.3856 386.431 47.1532C386.443 46.9207 386.271 46.7224 386.049 46.7103C385.341 46.6716 384.936 46.63 384.277 46.5408L384.147 46.5231C384.146 46.5212 384.111 46.4708 384.113 46.4628L384.947 41.9821L384.954 41.9239L385.078 39.4408C385.09 39.2084 384.919 39.0101 384.696 38.9979C384.473 38.9857 384.283 39.1642 384.271 39.3967L384.148 41.8504L383.322 46.2916Z" fill="#482D1F"/>
<path d="M411.825 41.4004C411.886 42.6487 411.539 43.9625 410.896 44.979C410.11 46.2627 409.121 46.9014 407.882 47.3405C407.671 47.4154 407.558 47.6548 407.63 47.8752C407.701 48.0955 407.931 48.2134 408.142 48.1385C408.687 47.9455 409.124 47.7493 409.64 47.416C410.4 46.925 411.06 46.2766 411.574 45.4379C412.308 44.2773 412.702 42.7862 412.633 41.358C412.621 41.1256 412.432 40.9466 412.209 40.9583C411.986 40.97 411.814 41.1679 411.825 41.4004Z" fill="#482D1F"/>
<path d="M442.704 191.043C442.768 190.7 443.086 190.476 443.415 190.543C443.744 190.61 443.958 190.942 443.894 191.284C443.492 193.437 443.128 195.099 442.279 198.791C441.434 202.466 441.073 204.116 440.675 206.245C440.611 206.588 440.293 206.812 439.964 206.745C439.635 206.678 439.421 206.346 439.485 206.003C439.887 203.851 440.251 202.189 441.1 198.496C441.945 194.821 442.306 193.171 442.704 191.043ZM450.901 189.188C450.985 188.85 451.316 188.647 451.64 188.735C451.964 188.823 452.158 189.168 452.074 189.506C451.497 191.821 451.088 193.625 450.209 197.652C449.326 201.691 448.916 203.504 448.334 205.835C448.25 206.173 447.919 206.376 447.595 206.288C447.271 206.2 447.077 205.855 447.161 205.517C447.738 203.203 448.147 201.398 449.027 197.371C449.909 193.332 450.319 191.519 450.901 189.188Z" fill="#482D1F"/>
<path d="M314.383 77.2305C328.667 77.2305 340.247 65.0604 340.247 50.0479C340.247 35.0353 328.667 22.8652 314.383 22.8652C300.099 22.8652 288.52 35.0353 288.52 50.0479C288.52 65.0604 300.099 77.2305 314.383 77.2305Z" fill="#E20000"/>
<path d="M314.453 49.4124C311.6 49.4124 309.286 47.0299 309.286 44.091C309.286 41.152 311.6 38.7695 314.453 38.7695C317.307 38.7695 319.62 41.152 319.62 44.091C319.62 47.0299 317.307 49.4124 314.453 49.4124ZM314.453 52.0731C319.625 52.0731 323.818 56.3914 323.818 61.7182H305.088C305.088 56.3914 309.281 52.0731 314.453 52.0731Z" fill="#F2F6FB"/>
<path d="M38.492 311.28V311.359C38.492 312.37 39.3407 313.213 40.3105 313.213H70.822L60.0719 333.779C52.3937 348.445 44.7558 363.069 37.118 377.735L24.4691 401.925C24.0246 402.768 24.3883 403.864 25.237 404.369L25.3986 404.454C26.2473 404.96 27.3384 404.665 27.7425 403.864L75.0647 313.213H106.586L153.908 403.864C154.312 404.665 155.403 404.917 156.252 404.454L156.414 404.369C157.262 403.864 157.626 402.768 157.181 401.925L144.532 377.735C136.854 363.069 129.216 348.445 121.579 333.779L110.828 313.213H151.281C152.292 313.213 153.1 312.37 153.1 311.359V311.148C153.1 310.136 152.251 309.294 151.281 309.294H123.801C105.899 309.294 87.956 309.294 70.0132 309.294H42.0601L38.6537 280.552C36.3098 260.997 34.0063 241.4 31.6624 221.803L27.8233 189.437C27.7021 188.299 26.7726 187.456 25.7623 187.583L25.5602 187.625C24.5904 187.751 23.9034 188.805 24.0246 189.859L38.4516 311.064C38.4621 311.137 38.4756 311.209 38.492 311.28Z" fill="#D8DEED"/>
<path d="M126.359 401.371C126.111 401.241 125.833 401.168 125.542 401.168H103.69L63.5869 370.01L78.7824 347.811L103.11 366.227C104.444 370.947 105.818 375.667 107.192 380.43C107.919 382.916 108.647 385.36 109.374 387.805C111.637 388.732 113.577 389.575 114.951 390.207C117.578 391.387 119.8 392.483 122.225 394.126C122.225 394.126 124.326 395.475 125.498 397.414C125.862 398.046 126.185 398.762 126.387 399.521C126.468 399.858 126.468 400.195 126.509 400.49C126.496 400.767 126.436 401.076 126.359 401.371ZM202.051 401.301C201.918 401.269 201.78 401.252 201.637 401.252H136.574C136.452 401.252 136.333 401.264 136.218 401.288L135.587 375.016L166.141 374.923C169.875 377.468 172.304 379.307 173.428 380.439C175.113 382.136 176.918 383.705 178.881 385.06C183.623 388.304 186.088 388.259 193.301 391.795C195.257 392.728 197.134 393.79 198.973 394.979C200.811 396.168 201.44 397.505 201.959 399.519C202.045 399.855 202.051 400.192 202.096 400.486C202.102 400.819 202.085 401.085 202.051 401.301Z" fill="#474961"/>
<path d="M102.218 404.62C102.178 404.593 102.138 404.565 102.1 404.535L61.5266 373.012C60.7184 372.38 60.5567 371.157 61.1629 370.314C61.7691 369.472 62.941 369.303 63.7492 369.935L103.889 401.121H125.741C126.751 401.121 127.6 402.006 127.6 403.06C127.6 404.114 126.751 404.999 125.741 404.999H103.312C102.901 404.999 102.524 404.859 102.218 404.62ZM136.773 401.206H201.836C202.841 401.206 203.655 402.055 203.655 403.102C203.655 404.15 202.841 404.999 201.836 404.999H136.773C135.769 404.999 134.955 404.15 134.955 403.102C134.955 402.055 135.769 401.206 136.773 401.206Z" fill="#FF5645"/>
<path d="M179.819 294.042C176.808 310.548 175.576 334.741 178.529 349.969C178.529 349.969 181.595 376.14 179.447 376.309C178.926 376.351 173.386 376.604 172.8 376.646C158.217 377.657 132.893 379.68 129.117 379.68C126.599 379.68 125.341 377.995 125.341 374.623L124.519 365.57V365.497C121.734 368.962 118.843 372.556 115.846 376.277C111.387 377.657 104.643 375.68 95.6125 370.346C86.5823 365.011 79.5928 359.753 74.6438 354.57C72.2595 352.968 66.4569 344.111 67.9925 341.793L78.1359 326.369L84.1977 317.139C85.895 314.526 87.1762 312.794 88.9947 310.055C88.9947 310.013 89.3203 309.511 89.3203 309.469C88.6737 309.469 89.4108 308.921 84.8038 308.879C80.1969 308.837 55.3841 308.289 45.8873 294.002C42.0989 288.303 41.8057 281.991 41.5228 279.168C40.4721 268.182 43.2511 259.28 49.8597 252.46C51.6298 251.104 52.9324 250.3 53.7676 250.047C55.1012 249.625 62.1328 249.414 63.5068 249.33L91.7143 248.951C105.137 248.765 116.344 248.607 125.335 248.476L125.341 248.403L125.335 248.476C143.503 248.212 152.624 248.061 152.696 248.024C152.857 247.939 170.291 248.698 174.979 251.522C183.958 257.008 188.68 274.295 179.819 294.042Z" fill="#FADEDE"/>
<path opacity="0.2" d="M179.73 294.207C176.732 310.711 175.51 334.842 178.457 350.042C178.457 350.042 181.524 376.213 179.375 376.382C178.855 376.424 173.314 376.677 172.728 376.719C158.146 377.73 132.821 379.753 129.045 379.753C126.528 379.753 125.269 378.068 125.269 374.696L124.449 365.658C159.264 322.332 177.486 298.959 179.116 295.537C179.328 295.093 179.533 294.649 179.73 294.207ZM125.253 248.683L125.269 248.476L125.253 248.683ZM140.516 248.455C140.508 248.455 140.5 248.455 140.492 248.455L139.917 248.35H139.982C140.161 248.385 140.338 248.42 140.516 248.455Z" fill="#8C2A00"/>
<path d="M107.649 281.359C105.655 284.504 103.556 287.56 98.4571 294.833C93.3415 302.131 91.2351 305.196 89.2215 308.373C88.9753 308.761 89.0776 309.284 89.45 309.541C89.8224 309.797 90.3238 309.691 90.5699 309.302C92.5638 306.157 94.6636 303.101 99.7621 295.828C104.878 288.53 106.984 285.465 108.998 282.288C109.244 281.9 109.142 281.377 108.769 281.12C108.397 280.864 107.895 280.97 107.649 281.359Z" fill="#482D1F"/>
<path d="M175.295 173.34C176.667 174.458 176.91 176.524 175.838 177.954C175.822 177.976 175.805 177.998 175.788 178.019L159.091 199.18C158.234 200.266 156.703 200.442 155.64 199.576C154.577 198.71 154.37 197.118 155.173 195.988L170.822 173.973C171.859 172.515 173.833 172.209 175.232 173.29C175.253 173.306 175.274 173.323 175.295 173.34Z" fill="#474961"/>
<path d="M171.839 177.719C175.357 180.585 180.392 179.994 183.085 176.398C184.38 174.67 182.578 171.068 183.025 165.726C183.13 164.478 183.961 162.461 185.518 159.675L185.518 159.675C185.63 159.474 185.565 159.216 185.372 159.099C185.278 159.041 185.166 159.026 185.061 159.057C176.979 161.392 172.075 163.713 170.347 166.02C167.654 169.615 168.322 174.853 171.839 177.719Z" fill="#F2F6FB"/>
<path d="M175.663 172.66C176.491 173.335 179.207 171.588 179.604 172.503C180.934 175.568 180.893 179.712 183.074 176.801C184.435 174.984 182.614 171.257 183.142 165.688C183.266 164.384 184.155 162.264 185.81 159.329L185.81 159.329C185.923 159.128 185.859 158.87 185.666 158.752C185.571 158.693 185.456 158.678 185.349 158.711C176.946 161.252 171.835 163.736 170.017 166.163C168.389 168.337 169.695 169.465 172.178 169.821C173.045 169.945 173.633 168.88 174.856 168.634C176.217 168.361 174.856 172.003 175.663 172.66Z" fill="#E20000"/>
<path d="M96.8581 173.363C106.904 177 113.266 187.753 111.389 199.123L102.955 248.796L56.2856 249.667C53.614 249.167 51.7301 248.001 50.6339 246.169C48.9896 243.422 49.4376 239.939 49.6616 238.598L58.0836 189.482C60.1651 177.018 71.435 168.628 83.3744 170.6L84.1909 166.594C84.2837 166.139 84.7129 165.848 85.1495 165.945L97.0079 168.574C97.4445 168.67 97.7233 169.118 97.6305 169.573L96.8581 173.363Z" fill="#E20000"/>
<path d="M87.1908 152.438C86.3416 161.43 85.8859 165.97 85.8235 166.06C85.7594 166.153 89.4211 166.977 96.8088 168.534L97.4649 165.056C97.6372 165.123 97.8145 165.191 97.997 165.261C101.415 166.632 101.211 166.509 101.455 166.589C104.012 167.259 106.193 167.178 106.597 167.128C109.987 166.813 113.838 160.294 115.46 150.95C115.609 150.188 115.637 149.429 115.705 148.669L115.902 141.12C115.954 139.433 115.603 137.754 114.81 136.293C114.477 135.667 114.143 135.083 113.772 134.626C109.513 128.887 101.854 130.08 100.483 130.273C100.321 130.276 100.16 130.321 99.9985 130.324C98.4694 130.731 97.0907 130.461 95.6354 130.446C94.9889 130.457 94.4729 131.015 94.4437 131.69L94.4224 142.481C94.399 143.493 91.5994 141.185 90.507 141.12C88.5648 140.987 86.4476 144.143 85.7549 146.221C84.9842 148.469 85.6688 150.733 86.9461 152.185C87.0266 152.273 87.1082 152.358 87.1908 152.438ZM113.916 227.05C114.775 226.746 115.63 226.44 116.484 226.133C123.016 223.783 129.446 221.387 136.423 218.725C138.773 217.853 139.782 217.417 141.469 216.718C146.965 214.42 167.65 205.591 168.641 204.768C172.126 203.211 169.838 190.266 169.838 185.537C164.065 188.185 156.128 191.576 146.028 195.711C143.99 196.805 142.521 198.228 141.469 199.413C139.751 199.549 126.018 202.04 113.364 204.247C113.71 204.185 114.058 204.124 114.406 204.062C114.323 200.694 113.727 195.554 111.162 189.972C111.801 192.884 111.908 195.981 111.39 199.123L110.433 204.756C103.031 206.037 96.3769 207.143 93.2521 207.513C93.0752 206.98 91.6839 200.69 89.0784 188.643L64.9923 195.71C65.545 199.171 66.8714 204.719 68.9715 212.353C72.1215 223.804 73.3378 232.356 81.5773 234.861C83.4979 235.448 85.9874 235.357 91.5145 233.963C96.7171 232.651 101.55 231.208 106.199 229.687L102.963 248.741L102.945 248.742L102.955 248.798L147.284 248.155C149.623 248.079 146.897 246.412 139.105 243.153C131.312 239.894 123.369 237.123 115.276 234.84L115.033 226.655C114.661 226.787 114.289 226.919 113.916 227.05ZM59.7335 184.013C65.6556 186.686 71.3888 186.998 76.9329 184.946C82.477 182.895 85.294 178.289 85.3836 171.129C80.5436 169.593 75.4617 170.011 70.1382 172.383C64.8147 174.755 61.3464 178.632 59.7335 184.013Z" fill="#DB9E75"/>
<path d="M96.8377 168.278L93.437 163.215L97.4683 165.055L96.8377 168.278Z" fill="#482D1F"/>
<path d="M113.186 149.255C113.233 148.744 113.61 148.337 114.094 148.301C114.417 148.278 114.71 148.425 114.87 149.005C115.243 150.33 114.123 152.355 113.548 151.636C113.111 151.161 113.153 149.975 113.186 149.255ZM105.993 149.526C106.04 149.015 106.418 148.607 106.901 148.572C107.224 148.549 107.517 148.696 107.678 149.276C108.05 150.601 106.93 152.626 106.355 151.907C105.918 151.432 105.92 150.249 105.993 149.526Z" fill="#482D1F"/>
<path d="M108.578 157.872C108.29 157.808 107.588 157.606 107.436 157.152C107.431 157.068 107.382 156.945 107.416 156.858C107.561 156.594 108.093 156.682 108.825 156.713C110.123 156.745 111.163 156.543 111.163 156.543C111.163 156.543 110.897 157.407 110.709 157.632C110.351 158.334 109.03 157.965 108.578 157.872Z" fill="#482D1F"/>
<path d="M115.992 145.798C116.389 145.685 116.517 145.169 116.215 144.895C115.83 144.585 115.197 144.209 114.388 144.225C112.729 144.262 110.983 145.403 112.796 145.862C113.953 146.2 115.234 145.98 115.992 145.798ZM108.171 146.369C108.569 146.255 108.696 145.739 108.354 145.468C107.968 145.158 107.336 144.782 106.486 144.801C104.828 144.838 103.084 146.021 104.895 146.438C106.092 146.774 107.373 146.553 108.171 146.369ZM87.2147 158.654C88.7097 157.61 89.7253 155.97 90.2618 153.734C89.5245 153.517 88.3892 153.046 87.468 151.964C86.2311 150.512 85.5472 148.29 86.3193 146.126C87.012 144.048 89.0055 142.41 90.9477 142.544C92.0401 142.608 92.8992 143.225 93.0218 143.307C94.3728 144.336 94.9611 145.674 94.9611 145.674L95.8349 147.987C97.2245 146.969 100.021 143.107 104.223 136.401C106.558 136.108 108.36 135.905 109.631 135.792C111.537 135.623 113.583 135.822 114.353 135.5C114.297 135.643 114.242 135.786 114.187 135.93C114.324 135.68 114.394 135.542 114.394 135.542C114.432 135.414 113.775 134.794 113.774 134.71C109.761 129.177 102.373 129.691 101.002 129.884C100.84 129.887 100.679 129.932 100.517 129.893C98.2584 130.187 96.3601 130.264 95.0678 130.329C88.9283 130.567 86.5303 129.768 83.4459 131.426C82.8852 131.731 81.5638 132.472 80.4168 133.968C79.7533 134.806 79.2556 135.695 78.8852 136.595C75.3623 136.475 72.861 138.302 71.3813 142.074C69.4055 147.111 72.4355 151.673 76.2095 153.538C77.8004 157.673 82.1634 160.65 85.6783 159.46C86.3109 159.246 86.823 158.977 87.2147 158.654Z" fill="#482D1F"/>
<path d="M111.113 149.759L111.106 149.698L111.112 149.728L111.113 149.759ZM111.892 154.161L111.897 154.208C111.928 154.667 111.656 155.115 111.222 155.223C111.142 155.237 111.097 155.244 111.052 155.25C110.628 155.31 110.322 155.337 109.224 155.417C109.001 155.433 108.808 155.258 108.792 155.026C108.777 154.793 108.945 154.592 109.167 154.576C110.246 154.497 110.543 154.471 110.944 154.415C110.985 154.409 111.027 154.403 111.069 154.396C111.06 154.397 111.09 154.346 111.091 154.283L110.311 149.85L110.305 149.789L110.219 147.303C110.211 147.07 110.386 146.875 110.609 146.867C110.832 146.858 111.019 147.04 111.027 147.273L111.112 149.728L111.892 154.161Z" fill="#482D1F"/>
<path d="M88.6542 188.35L88.6541 184.953C88.6541 184.603 88.9255 184.32 89.2603 184.32C89.595 184.32 89.8664 184.603 89.8664 184.953L89.8665 188.35C89.8665 188.699 89.5951 188.982 89.2603 188.982C88.9256 188.982 88.6542 188.699 88.6542 188.35Z" fill="#482D1F"/>
<path opacity="0.2" d="M111.175 189.971C111.869 191.446 112.553 193.365 113.227 195.726C113.9 198.087 114.288 200.866 114.39 204.063L110.428 204.738C110.788 202.694 111.037 201.231 111.175 200.347C111.435 198.681 111.717 197.209 111.717 196.054C111.717 193.983 111.536 191.956 111.175 189.971ZM106.197 229.685L115.03 226.655L115.276 234.838C129.701 239.346 139.806 243.096 145.592 246.087C146.757 246.689 147.481 247.12 147.763 247.379C147.882 247.495 147.975 247.594 148.043 247.679C148.208 247.885 148.043 248.097 147.517 248.136C147.166 248.162 132.309 248.368 102.945 248.754L106.197 229.685Z" fill="#8C2A00"/>
</svg>
