<svg width="578" height="191" viewBox="0 0 578 191" fill="none" xmlns="http://www.w3.org/2000/svg">
<path d="M208.216 134.248C189.88 134.248 180.088 121.48 180.088 101.608C180.088 79.624 191.896 68.392 208.408 68.392C225.4 68.392 236.344 80.488 236.344 101.608C236.344 121.576 226.456 134.248 208.216 134.248ZM208.216 126.664C216.376 126.664 227.32 122.344 227.32 101.8C227.32 83.656 218.68 76.168 208.312 76.168C200.824 76.168 189.112 80.2 189.112 101.416C189.112 121.384 199.096 126.664 208.216 126.664ZM266.906 134.248C253.562 134.248 245.211 128.488 245.499 117.544L253.083 116.008C252.699 123.496 258.363 127.144 267.291 127.144C274.875 127.144 279.291 124.456 279.291 119.944C279.291 114.664 273.723 113.416 265.755 111.784C256.059 109.672 246.171 107.368 246.171 96.904C246.171 87.976 253.659 82.12 265.851 82.12C277.563 82.12 285.531 87.784 285.819 98.152L278.043 99.784C278.139 92.776 272.955 89.224 265.467 89.224C258.747 89.224 254.523 92.008 254.523 96.424C254.523 101.8 260.379 103.144 268.059 104.68C277.755 106.6 287.643 108.712 287.643 119.56C287.643 129.064 279.579 134.248 266.906 134.248ZM313.053 133.96C303.837 133.96 299.421 128.584 299.421 118.888V90.664H292.413L292.509 83.656H296.349C299.997 83.56 301.437 82.216 301.821 78.856L302.589 72.424H307.965V83.368H321.789V90.856H307.965V118.6C307.965 124.072 310.845 125.896 314.781 125.896C316.989 125.896 319.677 125.32 321.981 123.592V132.232C318.717 133.48 315.741 133.96 313.053 133.96ZM335.754 75.592C331.818 75.592 329.898 73.864 329.898 70.696C329.898 67.528 331.914 65.8 335.754 65.8C339.69 65.8 341.802 67.528 341.802 70.792C341.802 73.864 339.69 75.592 335.754 75.592ZM331.434 133V83.368H340.17V133H331.434ZM366.048 133L348.192 83.464H357.792L371.424 125.512H372.48L386.208 83.464H395.616L377.664 133H366.048ZM407.942 75.592C404.006 75.592 402.086 73.864 402.086 70.696C402.086 67.528 404.102 65.8 407.942 65.8C411.878 65.8 413.99 67.528 413.99 70.792C413.99 73.864 411.878 75.592 407.942 75.592ZM403.622 133V83.368H412.358V133H403.622ZM441.116 133.96C431.9 133.96 427.484 128.584 427.484 118.888V90.664H420.476L420.572 83.656H424.412C428.06 83.56 429.5 82.216 429.884 78.856L430.652 72.424H436.028V83.368H449.852V90.856H436.028V118.6C436.028 124.072 438.908 125.896 442.844 125.896C445.052 125.896 447.74 125.32 450.044 123.592V132.232C446.78 133.48 443.804 133.96 441.116 133.96ZM463.817 75.592C459.881 75.592 457.961 73.864 457.961 70.696C457.961 67.528 459.977 65.8 463.817 65.8C467.753 65.8 469.865 67.528 469.865 70.792C469.865 73.864 467.753 75.592 463.817 75.592ZM459.497 133V83.368H468.233V133H459.497ZM502.943 134.248C487.295 134.248 478.943 124.168 478.943 108.904C478.943 93.736 487.103 82.12 502.079 82.12C515.519 82.12 524.063 91.336 523.103 108.904L487.487 109.288C487.679 120.808 493.055 127.048 503.039 127.048C511.871 127.048 515.231 121.768 516.095 116.584L524.063 117.928C522.431 127.72 515.327 134.248 502.943 134.248ZM502.079 89.608C494.495 89.608 489.407 94.696 487.967 103.336L514.847 102.952C514.175 94.312 509.375 89.608 502.079 89.608ZM553.219 134.248C539.875 134.248 531.523 128.488 531.811 117.544L539.395 116.008C539.011 123.496 544.675 127.144 553.603 127.144C561.187 127.144 565.603 124.456 565.603 119.944C565.603 114.664 560.035 113.416 552.067 111.784C542.371 109.672 532.483 107.368 532.483 96.904C532.483 87.976 539.971 82.12 552.163 82.12C563.875 82.12 571.843 87.784 572.131 98.152L564.355 99.784C564.451 92.776 559.267 89.224 551.779 89.224C545.059 89.224 540.835 92.008 540.835 96.424C540.835 101.8 546.691 103.144 554.371 104.68C564.067 106.6 573.955 108.712 573.955 119.56C573.955 129.064 565.891 134.248 553.219 134.248Z" fill="#E20000"/>
<g filter="url(#filter0_d_6686_8579)">
<circle cx="95.5" cy="87.5" r="71.5" fill="white"/>
</g>
<path fill-rule="evenodd" clip-rule="evenodd" d="M97.7945 51.5904C97.5787 51.6917 96.609 51.8433 95.6396 51.9275C94.6702 52.0114 93.7873 52.1592 93.6776 52.2559C93.5679 52.3525 92.9719 52.5448 92.3533 52.6834C91.7348 52.8219 91.1839 53.014 91.1292 53.1106C91.0746 53.2072 90.7221 53.3491 90.3457 53.4262C84.4786 54.6276 75.76 64.1256 72.1495 73.2497C71.9865 73.6619 71.7562 74.2401 71.638 74.5346C70.4593 77.4711 69.4174 81.1654 69.0111 83.8497C68.9042 84.5564 68.749 85.2812 68.666 85.4602C67.8425 87.2398 67.8345 99.0484 68.6546 102.052C68.751 102.405 68.9275 103.176 69.0466 103.765C69.4235 105.628 69.6554 106.525 69.8191 106.754C69.9066 106.877 70.0396 107.257 70.1147 107.6C71.5919 114.331 78.9879 121.809 85.6301 123.288C88.5205 123.932 89.6396 124.042 92.3009 123.944C95.0597 123.842 95.2612 123.799 98.7755 122.571C103.7 120.85 108.803 116.63 112.473 111.246C113.191 110.193 113.867 109.216 113.977 109.074C114.087 108.932 114.177 108.768 114.177 108.71C114.177 108.652 114.442 108.176 114.766 107.653C115.09 107.129 115.354 106.644 115.354 106.575C115.354 106.506 115.708 105.819 116.139 105.05C116.571 104.28 116.924 103.587 116.924 103.51C116.924 103.433 117.181 102.784 117.495 102.069C118.391 100.027 118.818 98.9252 119.164 97.7689C119.34 97.18 119.557 96.5054 119.648 96.2699C119.838 95.7741 120.284 94.0863 120.75 92.0941C120.93 91.3286 121.202 90.2335 121.355 89.6604C121.508 89.0876 121.633 88.3649 121.634 88.0544C121.635 87.7441 121.728 87.1243 121.842 86.6772C122.563 83.8426 122.565 74.0626 121.845 71.1083C121.136 68.2005 120.801 67.0801 120.135 65.4012C119.988 65.0301 119.867 64.6205 119.867 64.4911C119.867 64.3616 119.796 64.2558 119.709 64.2558C119.621 64.2558 119.393 63.8678 119.202 63.3934C117.935 60.261 112.591 54.7323 110.195 54.0759C109.903 53.9961 109.665 53.8447 109.665 53.7397C109.665 53.6346 109.554 53.5481 109.419 53.5474C109.285 53.5466 108.91 53.3958 108.587 53.2121C106.94 52.275 98.9073 51.0679 97.7945 51.5904ZM103.582 61.979C106.464 62.6407 110.646 66.6677 110.646 68.7814C110.646 68.9067 110.769 69.3129 110.919 69.684C112.064 72.5116 112.246 78.9801 111.344 84.8133C110.836 88.1051 109.537 93.8034 109.216 94.1537C109.139 94.2381 109.075 94.4595 109.075 94.646C109.074 94.8326 108.942 95.2611 108.781 95.5983C108.619 95.9358 108.484 96.3213 108.481 96.4549C108.477 96.5887 108.304 97.0836 108.095 97.5547C107.886 98.0258 107.713 98.5319 107.709 98.679C107.706 98.8263 107.614 98.9466 107.506 98.9466C107.398 98.9466 107.31 99.0854 107.31 99.2548C107.31 99.6105 106.272 101.845 105.49 103.172C105.196 103.67 104.956 104.133 104.956 104.201C104.956 104.718 101.025 109.654 100.613 109.654C100.52 109.654 100.443 109.742 100.443 109.85C100.443 109.959 100.132 110.257 99.7512 110.514C99.3708 110.77 98.9513 111.091 98.8192 111.227C96.7593 113.343 90.6524 114.184 87.5921 112.772C85.8078 111.949 84.9434 111.493 84.9434 111.376C84.9434 111.304 84.7007 111.084 84.4038 110.888C83.59 110.349 81.608 108.159 81.608 107.799C81.608 107.719 81.4869 107.501 81.3392 107.315C80.5069 106.269 79.6281 103.953 78.9351 100.981C78.4799 99.0282 78.4682 92.5057 78.9161 90.381C79.0774 89.6154 79.2687 88.5336 79.3409 87.9768C79.4133 87.4203 79.5557 86.9087 79.6573 86.84C79.759 86.7714 79.8422 86.4943 79.8422 86.2241C79.8422 85.9538 80.0694 85.0682 80.347 84.2559C80.6246 83.4437 80.923 82.5381 81.0099 82.2436C81.3054 81.2434 83.3551 76.459 83.5788 76.2477C83.641 76.1888 84.0324 75.5142 84.4484 74.7487C89.465 65.5169 97.023 60.4725 103.582 61.979Z" fill="#E20000"/>
<defs>
<filter id="filter0_d_6686_8579" x="0" y="0" width="191" height="191" filterUnits="userSpaceOnUse" color-interpolation-filters="sRGB">
<feFlood flood-opacity="0" result="BackgroundImageFix"/>
<feColorMatrix in="SourceAlpha" type="matrix" values="0 0 0 0 0 0 0 0 0 0 0 0 0 0 0 0 0 0 127 0" result="hardAlpha"/>
<feOffset dy="8"/>
<feGaussianBlur stdDeviation="12"/>
<feColorMatrix type="matrix" values="0 0 0 0 0 0 0 0 0 0 0 0 0 0 0 0 0 0 0.08 0"/>
<feBlend mode="normal" in2="BackgroundImageFix" result="effect1_dropShadow_6686_8579"/>
<feBlend mode="normal" in="SourceGraphic" in2="effect1_dropShadow_6686_8579" result="shape"/>
</filter>
</defs>
</svg>
